<svg width="300" height="200" viewBox="0 0 300 200" xmlns="http://www.w3.org/2000/svg">
  <!-- Background gradient -->
  <defs>
    <linearGradient id="bg2" x1="0%" y1="0%" x2="100%" y2="100%">
      <stop offset="0%" style="stop-color:#0f172a;stop-opacity:1" />
      <stop offset="100%" style="stop-color:#1e293b;stop-opacity:1" />
    </linearGradient>
    <linearGradient id="playBtn2" x1="0%" y1="0%" x2="100%" y2="100%">
      <stop offset="0%" style="stop-color:#10b981;stop-opacity:0.9" />
      <stop offset="100%" style="stop-color:#059669;stop-opacity:0.9" />
    </linearGradient>
  </defs>
  
  <!-- Background -->
  <rect width="300" height="200" fill="url(#bg2)" rx="8"/>
  
  <!-- Terminal/Code window -->
  <rect x="30" y="25" width="240" height="120" fill="#000000" opacity="0.8" rx="6"/>
  <rect x="30" y="25" width="240" height="20" fill="#374151" rx="6 6 0 0"/>
  
  <!-- Terminal dots -->
  <circle cx="45" cy="35" r="3" fill="#ef4444"/>
  <circle cx="60" cy="35" r="3" fill="#f59e0b"/>
  <circle cx="75" cy="35" r="3" fill="#10b981"/>
  
  <!-- Code lines -->
  <rect x="40" y="55" width="80" height="6" fill="#10b981" opacity="0.8" rx="1"/>
  <rect x="130" y="55" width="60" height="6" fill="#3b82f6" opacity="0.8" rx="1"/>
  
  <rect x="40" y="70" width="120" height="6" fill="#8b5cf6" opacity="0.8" rx="1"/>
  <rect x="170" y="70" width="40" height="6" fill="#f59e0b" opacity="0.8" rx="1"/>
  
  <rect x="40" y="85" width="90" height="6" fill="#ef4444" opacity="0.8" rx="1"/>
  <rect x="140" y="85" width="70" height="6" fill="#10b981" opacity="0.8" rx="1"/>
  
  <rect x="40" y="100" width="100" height="6" fill="#3b82f6" opacity="0.8" rx="1"/>
  
  <rect x="40" y="115" width="60" height="6" fill="#8b5cf6" opacity="0.8" rx="1"/>
  <rect x="110" y="115" width="80" height="6" fill="#f59e0b" opacity="0.8" rx="1"/>
  
  <!-- Stack icons -->
  <rect x="220" y="60" width="30" height="30" fill="#61dafb" opacity="0.3" rx="4"/>
  <text x="235" y="80" font-family="Arial, sans-serif" font-size="20" font-weight="bold" fill="#61dafb" text-anchor="middle">JS</text>
  
  <rect x="220" y="100" width="30" height="30" fill="#10b981" opacity="0.3" rx="4"/>
  <text x="235" y="120" font-family="Arial, sans-serif" font-size="16" font-weight="bold" fill="#10b981" text-anchor="middle">API</text>
  
  <!-- Play button -->
  <circle cx="150" cy="100" r="25" fill="url(#playBtn2)" opacity="0.95"/>
  <polygon points="142,88 142,112 165,100" fill="white"/>
  
  <!-- Title area -->
  <rect x="0" y="160" width="300" height="40" fill="rgba(0,0,0,0.7)"/>
  <text x="20" y="180" font-family="Arial, sans-serif" font-size="14" font-weight="bold" fill="white">Full-Stack Bootcamp</text>
  <text x="20" y="195" font-family="Arial, sans-serif" font-size="11" fill="#d1d5db">2:15:45 • 25K views</text>
</svg>