<svg width="300" height="200" viewBox="0 0 300 200" xmlns="http://www.w3.org/2000/svg">
  <!-- Background gradient -->
  <defs>
    <linearGradient id="bg1" x1="0%" y1="0%" x2="100%" y2="100%">
      <stop offset="0%" style="stop-color:#1f2937;stop-opacity:1" />
      <stop offset="100%" style="stop-color:#374151;stop-opacity:1" />
    </linearGradient>
    <linearGradient id="playBtn" x1="0%" y1="0%" x2="100%" y2="100%">
      <stop offset="0%" style="stop-color:#10b981;stop-opacity:0.9" />
      <stop offset="100%" style="stop-color:#059669;stop-opacity:0.9" />
    </linearGradient>
  </defs>
  
  <!-- Background -->
  <rect width="300" height="200" fill="url(#bg1)" rx="8"/>
  
  <!-- Code elements -->
  <rect x="20" y="30" width="60" height="8" fill="#10b981" opacity="0.7" rx="2"/>
  <rect x="90" y="30" width="40" height="8" fill="#3b82f6" opacity="0.7" rx="2"/>
  <rect x="140" y="30" width="80" height="8" fill="#8b5cf6" opacity="0.7" rx="2"/>
  
  <rect x="20" y="50" width="100" height="8" fill="#ef4444" opacity="0.7" rx="2"/>
  <rect x="130" y="50" width="60" height="8" fill="#f59e0b" opacity="0.7" rx="2"/>
  
  <rect x="20" y="70" width="80" height="8" fill="#10b981" opacity="0.7" rx="2"/>
  <rect x="110" y="70" width="90" height="8" fill="#3b82f6" opacity="0.7" rx="2"/>
  
  <!-- React logo -->
  <circle cx="240" cy="50" r="15" fill="none" stroke="#61dafb" stroke-width="2" opacity="0.8"/>
  <circle cx="240" cy="50" r="6" fill="none" stroke="#61dafb" stroke-width="2" opacity="0.8"/>
  <ellipse cx="240" cy="50" rx="25" ry="10" fill="none" stroke="#61dafb" stroke-width="2" opacity="0.8" transform="rotate(60 240 50)"/>
  <ellipse cx="240" cy="50" rx="25" ry="10" fill="none" stroke="#61dafb" stroke-width="2" opacity="0.8" transform="rotate(-60 240 50)"/>
  
  <!-- Play button -->
  <circle cx="150" cy="100" r="25" fill="url(#playBtn)" opacity="0.95"/>
  <polygon points="142,88 142,112 165,100" fill="white"/>
  
  <!-- Title area -->
  <rect x="0" y="160" width="300" height="40" fill="rgba(0,0,0,0.7)"/>
  <text x="20" y="180" font-family="Arial, sans-serif" font-size="14" font-weight="bold" fill="white">React Hooks Tutorial</text>
  <text x="20" y="195" font-family="Arial, sans-serif" font-size="11" fill="#d1d5db">45:30 • 12K views</text>
</svg>