<svg width="300" height="200" viewBox="0 0 300 200" xmlns="http://www.w3.org/2000/svg">
  <!-- Background gradient -->
  <defs>
    <linearGradient id="bg3" x1="0%" y1="0%" x2="100%" y2="100%">
      <stop offset="0%" style="stop-color:#312e81;stop-opacity:1" />
      <stop offset="100%" style="stop-color:#1e1b4b;stop-opacity:1" />
    </linearGradient>
    <linearGradient id="playBtn3" x1="0%" y1="0%" x2="100%" y2="100%">
      <stop offset="0%" style="stop-color:#10b981;stop-opacity:0.9" />
      <stop offset="100%" style="stop-color:#059669;stop-opacity:0.9" />
    </linearGradient>
  </defs>
  
  <!-- Background -->
  <rect width="300" height="200" fill="url(#bg3)" rx="8"/>
  
  <!-- JavaScript logo background -->
  <rect x="40" y="30" width="220" height="100" fill="#f7df1e" opacity="0.1" rx="8"/>
  
  <!-- ES6+ Features visualization -->
  <rect x="60" y="50" width="80" height="15" fill="#f7df1e" opacity="0.8" rx="3"/>
  <text x="100" y="62" font-family="Arial, sans-serif" font-size="10" font-weight="bold" fill="#000" text-anchor="middle">const/let</text>
  
  <rect x="160" y="50" width="80" height="15" fill="#f7df1e" opacity="0.8" rx="3"/>
  <text x="200" y="62" font-family="Arial, sans-serif" font-size="10" font-weight="bold" fill="#000" text-anchor="middle">Arrow Functions</text>
  
  <rect x="60" y="75" width="80" height="15" fill="#f7df1e" opacity="0.8" rx="3"/>
  <text x="100" y="87" font-family="Arial, sans-serif" font-size="10" font-weight="bold" fill="#000" text-anchor="middle">Destructuring</text>
  
  <rect x="160" y="75" width="80" height="15" fill="#f7df1e" opacity="0.8" rx="3"/>
  <text x="200" y="87" font-family="Arial, sans-serif" font-size="10" font-weight="bold" fill="#000" text-anchor="middle">Promises</text>
  
  <rect x="60" y="100" width="80" height="15" fill="#f7df1e" opacity="0.8" rx="3"/>
  <text x="100" y="112" font-family="Arial, sans-serif" font-size="10" font-weight="bold" fill="#000" text-anchor="middle">Async/Await</text>
  
  <rect x="160" y="100" width="80" height="15" fill="#f7df1e" opacity="0.8" rx="3"/>
  <text x="200" y="112" font-family="Arial, sans-serif" font-size="10" font-weight="bold" fill="#000" text-anchor="middle">Modules</text>
  
  <!-- JavaScript logo -->
  <rect x="20" y="40" width="30" height="30" fill="#f7df1e" rx="4"/>
  <text x="35" y="60" font-family="Arial, sans-serif" font-size="18" font-weight="bold" fill="#000" text-anchor="middle">JS</text>
  
  <!-- ES6+ badge -->
  <rect x="250" y="40" width="30" height="20" fill="#8b5cf6" opacity="0.9" rx="4"/>
  <text x="265" y="53" font-family="Arial, sans-serif" font-size="10" font-weight="bold" fill="white" text-anchor="middle">ES6+</text>
  
  <!-- Play button -->
  <circle cx="150" cy="100" r="25" fill="url(#playBtn3)" opacity="0.95"/>
  <polygon points="142,88 142,112 165,100" fill="white"/>
  
  <!-- Title area -->
  <rect x="0" y="160" width="300" height="40" fill="rgba(0,0,0,0.7)"/>
  <text x="20" y="180" font-family="Arial, sans-serif" font-size="14" font-weight="bold" fill="white">JavaScript ES6+ Features</text>
  <text x="20" y="195" font-family="Arial, sans-serif" font-size="11" fill="#d1d5db">1:28:15 • 18K views</text>
</svg>